<svg width="960" height="560" viewBox="0 0 960 560" fill="none" xmlns="http://www.w3.org/2000/svg">
  <rect width="960" height="560" rx="28" fill="#F6F1E8"/>
  <rect x="34" y="34" width="892" height="492" rx="24" fill="#FFFFFF" stroke="#E7DDCE"/>
  <rect x="72" y="72" width="816" height="74" rx="16" fill="#124B47"/>
  <circle cx="112" cy="109" r="22" fill="#EAB84F"/>
  <path d="M99 119L111 98L119 112L127 94L137 119" stroke="#124B47" stroke-width="5" stroke-linecap="round" stroke-linejoin="round"/>
  <text x="154" y="106" fill="#FFFFFF" font-family="Inter, Arial, sans-serif" font-size="24" font-weight="700">SmartMENA Command Center</text>
  <text x="154" y="130" fill="#B8D7D3" font-family="Inter, Arial, sans-serif" font-size="14">Campaign planning, publishing signals, inbox, and analytics in one workspace</text>
  <rect x="706" y="91" width="148" height="36" rx="18" fill="#FFFFFF" fill-opacity=".14"/>
  <text x="735" y="114" fill="#FFFFFF" font-family="Inter, Arial, sans-serif" font-size="14" font-weight="600">Live workspace</text>

  <g transform="translate(72 176)">
    <rect width="250" height="286" rx="18" fill="#F9F6F0" stroke="#E7DDCE"/>
    <text x="20" y="38" fill="#102522" font-family="Inter, Arial, sans-serif" font-size="16" font-weight="750">Content calendar</text>
    <text x="20" y="60" fill="#65706A" font-family="Inter, Arial, sans-serif" font-size="12">Scheduled posts this week</text>
    <g transform="translate(20 86)">
      <rect width="210" height="36" rx="10" fill="#124B47" fill-opacity=".10"/>
      <rect x="12" y="12" width="74" height="12" rx="6" fill="#124B47"/>
      <rect x="112" y="12" width="70" height="12" rx="6" fill="#D6CEC1"/>
    </g>
    <g transform="translate(20 136)">
      <rect width="210" height="36" rx="10" fill="#EAB84F" fill-opacity=".20"/>
      <rect x="12" y="12" width="92" height="12" rx="6" fill="#D8981A"/>
      <rect x="126" y="12" width="56" height="12" rx="6" fill="#D6CEC1"/>
    </g>
    <g transform="translate(20 186)">
      <rect width="210" height="36" rx="10" fill="#477D8E" fill-opacity=".14"/>
      <rect x="12" y="12" width="68" height="12" rx="6" fill="#477D8E"/>
      <rect x="112" y="12" width="70" height="12" rx="6" fill="#D6CEC1"/>
    </g>
    <rect x="20" y="246" width="94" height="18" rx="9" fill="#124B47" fill-opacity=".14"/>
    <text x="126" y="260" fill="#5D675F" font-family="Inter, Arial, sans-serif" font-size="13">3 channels</text>
  </g>

  <g transform="translate(355 176)">
    <rect width="250" height="286" rx="18" fill="#F9F6F0" stroke="#E7DDCE"/>
    <text x="20" y="38" fill="#102522" font-family="Inter, Arial, sans-serif" font-size="16" font-weight="750">Inbox and comments</text>
    <text x="20" y="60" fill="#65706A" font-family="Inter, Arial, sans-serif" font-size="12">Respond faster with context</text>
    <g transform="translate(20 92)">
      <circle cx="18" cy="18" r="18" fill="#124B47"/>
      <rect x="50" y="5" width="154" height="10" rx="5" fill="#124B47"/>
      <rect x="50" y="24" width="120" height="10" rx="5" fill="#D6CEC1"/>
    </g>
    <g transform="translate(20 152)">
      <circle cx="18" cy="18" r="18" fill="#D8981A"/>
      <rect x="50" y="5" width="126" height="10" rx="5" fill="#124B47"/>
      <rect x="50" y="24" width="154" height="10" rx="5" fill="#D6CEC1"/>
    </g>
    <g transform="translate(20 212)">
      <circle cx="18" cy="18" r="18" fill="#477D8E"/>
      <rect x="50" y="5" width="138" height="10" rx="5" fill="#124B47"/>
      <rect x="50" y="24" width="94" height="10" rx="5" fill="#D6CEC1"/>
    </g>
  </g>

  <g transform="translate(638 176)">
    <rect width="250" height="286" rx="18" fill="#F9F6F0" stroke="#E7DDCE"/>
    <text x="20" y="38" fill="#102522" font-family="Inter, Arial, sans-serif" font-size="16" font-weight="750">Decision brief</text>
    <text x="20" y="60" fill="#65706A" font-family="Inter, Arial, sans-serif" font-size="12">What happened, why, next move</text>
    <circle cx="76" cy="132" r="48" fill="#124B47" fill-opacity=".12"/>
    <path d="M76 84A48 48 0 1 1 34 155" stroke="#124B47" stroke-width="12" stroke-linecap="round"/>
    <text x="57" y="139" fill="#124B47" font-family="Inter, Arial, sans-serif" font-size="24" font-weight="800">82</text>
    <rect x="140" y="98" width="72" height="10" rx="5" fill="#124B47"/>
    <rect x="140" y="126" width="58" height="10" rx="5" fill="#D6CEC1"/>
    <rect x="140" y="154" width="80" height="10" rx="5" fill="#D6CEC1"/>
    <rect x="24" y="224" width="202" height="36" rx="18" fill="#EAB84F" fill-opacity=".28"/>
    <text x="54" y="247" fill="#102522" font-family="Inter, Arial, sans-serif" font-size="13" font-weight="700">Suggested next move</text>
  </g>
</svg>
